<?xml version="1.0" encoding="UTF-8" standalone="no"?>
<!DOCTYPE svg PUBLIC "-//W3C//DTD SVG 1.1//EN" "http://www.w3.org/Graphics/SVG/1.1/DTD/svg11.dtd">
<svg width="100%" height="100%" viewBox="0 0 902 635" version="1.1" xmlns="http://www.w3.org/2000/svg" xmlns:xlink="http://www.w3.org/1999/xlink" xml:space="preserve" xmlns:serif="http://www.serif.com/" style="fill-rule:evenodd;clip-rule:evenodd;stroke-linecap:round;stroke-linejoin:round;stroke-miterlimit:10;">
    <g transform="matrix(4.166667,0,0,4.166667,344.878691,561.993615)">
        <path d="M0,-56.84C-5.91,-55.36 -13.22,-52.64 -16.63,-47.59C-20.04,-42.54 -21.19,-38.13 -21.19,-30.7C-23.28,-32.95 -27.16,-32.43 -29.57,-30.52C-31.98,-28.61 -33.35,-25.73 -34.92,-23.09C-38.13,-17.69 -42.47,-12.96 -47.58,-9.29C-49.27,-8.08 -51.23,-6.67 -51.36,-4.59C-51.46,-2.88 -50.15,-1.32 -48.57,-0.66C-46.99,0 -45.2,-0.08 -43.5,-0.34C-35.45,-1.59 -28.17,-7.04 -24.34,-14.47C-16.36,-11.35 -6.82,-12.58 0.12,-17.61" style="fill:rgb(77,154,208);fill-rule:nonzero;stroke:rgb(66,39,36);stroke-width:1px;"/>
    </g>
    <g transform="matrix(4.166667,0,0,4.166667,326.960774,302.743199)">
        <path d="M0,6.86C-12.43,0.97 -25.25,-5.02 -38.98,-5.84C-49.81,-6.49 -60.64,-3.83 -70.63,0.4C-72.79,1.32 -74.99,2.36 -76.48,4.17C-77.97,5.98 -78.56,8.74 -77.23,10.67C-76.26,12.08 -74.46,12.76 -72.75,12.78C-71.03,12.8 -69.37,12.24 -67.77,11.62C-63.68,10.03 -59.78,7.96 -55.62,6.56C-47.35,3.78 -38.34,3.74 -29.76,5.29C-21.18,6.85 -12.95,9.94 -4.89,13.28C-4.86,13.32 -4.83,13.35 0,6.86Z" style="fill:rgb(77,154,208);fill-rule:nonzero;stroke:rgb(66,39,36);stroke-width:1px;"/>
    </g>
    <g transform="matrix(4.166667,0,0,4.166667,637.963691,614.701115)">
        <path d="M0,-41.69C6.729,-32.3 13.46,-22.9 20.189,-13.51C21.68,-11.43 23.22,-9.22 23.51,-6.63C23.8,-4.04 22.34,-0.98 19.779,-0.42C17.88,0 16.05,-1.02 14.439,-2.04C3.689,-8.86 -5.99,-17.32 -14.19,-27.07" style="fill:rgb(77,154,208);fill-rule:nonzero;stroke:rgb(66,39,36);stroke-width:1px;"/>
    </g>
    <g transform="matrix(-1.435841,-3.911454,-3.911454,1.435841,411.079733,350.253605)">
        <path d="M-22.94,-31.826C-19.819,-7.394 21.368,5.215 12.623,22.422C5.743,35.952 -9.419,36.957 -22.94,29.085C-50.532,13.03 -74.615,-43.057 -38.613,-47.303C-35.013,-42.254 -27.996,-35.531 -22.94,-31.826Z" style="fill:rgb(77,154,208);fill-rule:nonzero;stroke:rgb(66,39,36);stroke-width:1px;"/>
    </g>
    <g transform="matrix(4.166667,0,0,4.166667,326.336191,592.867782)">
        <path d="M0,-65.45C-5.76,-63.34 -8.58,-59.59 -10.64,-54.81C-12.7,-50.03 -12.9,-44.47 -11.18,-39.56C-11.42,-41.55 -14.08,-42.53 -15.87,-41.63C-17.65,-40.72 -18.51,-38.58 -18.53,-36.58C-18.55,-34.58 -17.91,-32.64 -17.42,-30.7C-15.88,-24.51 -15.96,-17.93 -17.66,-11.79C-18.48,-8.8 -19.62,-5.38 -17.89,-2.81C-16,0 -11.64,-0.07 -8.76,-1.85C-5.77,-3.69 -3.79,-6.87 -2.78,-10.23C-1.77,-13.59 -1.65,-17.15 -1.34,-19.89C3.78,-16.04 11.27,-15.69 16.73,-19.04C22.19,-22.39 25.26,-29.23 24.15,-35.54" style="fill:rgb(77,154,208);fill-rule:nonzero;stroke:rgb(66,39,36);stroke-width:1px;"/>
    </g>
    <g transform="matrix(4.166667,0,0,4.166667,490.628691,634.034865)">
        <path d="M0,-34.19C-1.9,-33.42 -3.82,-32.64 -5.47,-31.43C-7.13,-30.23 -8.52,-28.54 -8.96,-26.54C-9.69,-23.21 -7.7,-19.93 -5.68,-17.18C-0.88,-10.64 4.87,-4.42 12.36,-1.31C14.22,-0.54 16.45,0 18.16,-1.05C19.43,-1.83 20.11,-3.35 20.22,-4.84C20.33,-6.33 19.95,-7.81 19.52,-9.23C18.05,-14.13 15.97,-18.85 13.34,-23.24" style="fill:rgb(77,154,208);fill-rule:nonzero;stroke:rgb(66,39,36);stroke-width:1px;"/>
    </g>
    <g transform="matrix(4.166667,0,0,4.166667,747.586607,100.409449)">
        <path d="M0,0.01C0,0.01 -28.22,-27.36 -41.44,-23.16C-47.22,-21.33 -54.36,17 -48.65,27.37" style="fill:rgb(77,154,208);fill-rule:nonzero;stroke:rgb(66,39,36);stroke-width:1px;"/>
    </g>
    <g transform="matrix(4.166667,0,0,4.166667,802.547024,91.784865)">
        <path d="M0,84.24C-0.37,84.32 -0.74,84.4 -1.11,84.47C-13.54,86.61 -22.721,86.32 -28.25,85.67C-57.511,82.23 -75.931,75.93 -75.931,47.13C-75.931,14.68 -59.881,-2.37 -33.931,-2.37C3.5,-2.37 20.31,24.07 16.069,53.13C15.83,54.79 15.52,56.38 15.17,57.91C15.149,57.96 15.14,58.02 15.13,58.07C16.6,58.18 19.22,58.74 20.09,61.36C22.829,69.57 14.779,80.97 0,84.24" style="fill:rgb(77,154,208);fill-rule:nonzero;"/>
    </g>
    <g transform="matrix(4.166667,0,0,4.166667,802.547024,91.784865)">
        <path d="M0,84.24C-0.37,84.32 -0.74,84.4 -1.11,84.47C-13.54,86.61 -22.721,86.32 -28.25,85.67C-57.511,82.23 -75.931,75.93 -75.931,47.13C-75.931,14.68 -59.881,-2.37 -33.931,-2.37C3.5,-2.37 20.31,24.07 16.069,53.13C15.83,54.79 15.52,56.38 15.17,57.91C15.149,57.96 15.14,58.02 15.13,58.07C16.6,58.18 19.22,58.74 20.09,61.36C22.829,69.57 14.779,80.97 0,84.24Z" style="fill:none;fill-rule:nonzero;stroke:rgb(66,39,36);stroke-width:1px;"/>
    </g>
    <g transform="matrix(4.166667,0,0,4.166667,605.879524,274.660282)">
        <path d="M0,-43.8C0,-43.8 -40.84,-50.28 -50.06,-39.29C-54.09,-34.49 -38.07,1.18 -27,6.48" style="fill:rgb(77,154,208);fill-rule:nonzero;stroke:rgb(66,39,36);stroke-width:1px;"/>
    </g>
    <g transform="matrix(4.166667,0,0,4.166667,416.086607,269.660699)">
        <path d="M0,-33.77C12.44,-36.18 20.75,-23.6 36.73,-25.81C40.84,-26.38 28.26,2.41 19.73,1.59C13.58,1.32 -3.87,-33.02 0,-33.77" style="fill:rgb(240,193,175);fill-rule:nonzero;"/>
    </g>
    <g transform="matrix(4.166667,0,0,4.166667,416.086607,269.660699)">
        <path d="M0,-33.77C12.44,-36.18 20.75,-23.6 36.73,-25.81C40.84,-26.38 28.26,2.41 19.73,1.59C13.58,1.32 -3.87,-33.02 0,-33.77Z" style="fill:none;fill-rule:nonzero;stroke:rgb(66,39,36);stroke-width:1px;"/>
    </g>
    <g transform="matrix(-4.166667,0,0,4.166667,786.629107,360.909449)">
        <path d="M0,-8.76C-1.381,-8.76 -2.5,-6.799 -2.5,-4.38C-2.5,-1.961 -1.381,0 0,0C1.381,0 2.5,-1.961 2.5,-4.38C2.5,-6.799 1.381,-8.76 0,-8.76" style="fill:rgb(66,39,36);fill-rule:nonzero;"/>
    </g>
    <g transform="matrix(4.166667,0,0,4.166667,802.547024,334.034865)">
        <path d="M0,26.1C-0.37,26.18 -0.74,26.26 -1.11,26.33C-1.141,26.24 -1.171,26.16 -1.19,26.07C-3.061,19.09 -1.061,11.2 3.909,5.95C6.899,2.79 10.909,0.65 15.17,-0.23C15.149,-0.18 15.14,-0.12 15.13,-0.07C16.6,0.04 19.22,0.6 20.09,3.22C22.829,11.43 14.779,22.83 0,26.1" style="fill:rgb(230,249,255);fill-rule:nonzero;"/>
    </g>
    <g transform="matrix(4.166667,0,0,4.166667,802.547024,334.034865)">
        <path d="M0,26.1C-0.37,26.18 -0.74,26.26 -1.11,26.33C-1.141,26.24 -1.171,26.16 -1.19,26.07C-3.061,19.09 -1.061,11.2 3.909,5.95C6.899,2.79 10.909,0.65 15.17,-0.23C15.149,-0.18 15.14,-0.12 15.13,-0.07C16.6,0.04 19.22,0.6 20.09,3.22C22.829,11.43 14.779,22.83 0,26.1Z" style="fill:none;fill-rule:nonzero;stroke:rgb(66,39,36);stroke-width:1px;"/>
    </g>
    <g transform="matrix(4.166667,0,0,4.166667,870.295774,368.577782)">
        <path d="M0,-8.2C0.14,-9.02 2.56,-9.27 4.91,-8.88C9.859,-8.07 6.39,1.07 4.189,0.29C3.09,-0.11 -0.2,-7.03 0,-8.2" style="fill:rgb(66,39,36);fill-rule:nonzero;"/>
    </g>
</svg>
