<?xml version="1.0" encoding="UTF-8" standalone="no"?>
<!DOCTYPE svg PUBLIC "-//W3C//DTD SVG 1.1//EN" "http://www.w3.org/Graphics/SVG/1.1/DTD/svg11.dtd">
<svg width="100%" height="100%" viewBox="0 0 849 595" version="1.1" xmlns="http://www.w3.org/2000/svg" xmlns:xlink="http://www.w3.org/1999/xlink" xml:space="preserve" xmlns:serif="http://www.serif.com/" style="fill-rule:evenodd;clip-rule:evenodd;stroke-linecap:round;stroke-linejoin:round;stroke-miterlimit:10;">
    <g transform="matrix(4.166667,0,0,4.166667,572.223945,578.697782)">
        <path d="M0,-17.369C-6.11,-10.059 -13.28,-2.949 -22.48,-0.459C-23.68,-0.14 -24.93,0.11 -26.15,-0.09C-27.37,-0.289 -28.58,-0.979 -29.1,-2.099C-29.73,-3.459 -29.24,-5.059 -28.67,-6.439C-27,-10.479 -24.63,-14.229 -21.69,-17.479" style="fill:rgb(77,154,208);fill-rule:nonzero;stroke:rgb(66,39,36);stroke-width:1px;"/>
    </g>
    <g transform="matrix(4.166667,0,0,4.166667,330.140195,368.159865)">
        <path d="M0,39.54C-8.31,37.8 -12.08,33.46 -13.16,28.09C-14.23,22.71 -12.53,17.1 -9.77,12.36C-6.34,6.49 -1.09,1.51 5.34,-0.69C11.25,-2.71 17.8,-2.29 23.76,-0.43C29.72,1.42 35.42,5.38 41.14,9.37C49.74,11.03 58.09,11.939 66.94,13.92C68.26,21.64 64.64,29.729 58.68,34.81C52.72,39.89 44.72,42.17 36.88,42.21C29.81,42.25 22.75,40.56 16.82,37.12C12.44,39 5.07,40.6 0,39.54" style="fill:rgb(77,154,208);fill-rule:nonzero;"/>
    </g>
    <g transform="matrix(4.166667,0,0,4.166667,330.140195,368.159865)">
        <path d="M0,39.54C-8.31,37.8 -12.08,33.46 -13.16,28.09C-14.23,22.71 -12.53,17.1 -9.77,12.36C-6.34,6.49 -1.09,1.51 5.34,-0.69C11.25,-2.71 17.8,-2.29 23.76,-0.43C29.72,1.42 35.42,5.38 41.14,9.37C49.74,11.03 58.09,11.939 66.94,13.92C68.26,21.64 64.64,29.729 58.68,34.81C52.72,39.89 44.72,42.17 36.88,42.21C29.81,42.25 22.75,40.56 16.82,37.12C12.44,39 5.07,40.6 0,39.54Z" style="fill:none;fill-rule:nonzero;stroke:rgb(66,39,36);stroke-width:1px;"/>
    </g>
    <g transform="matrix(4.166667,0,0,4.166667,293.974779,349.658615)">
        <path d="M0,22.2C-5.55,22.62 -11.02,20.301 -15.48,16.971C-19.94,13.64 -23.56,9.34 -27.24,5.16C-30.92,0.98 -34.76,-3.17 -39.5,-6.08C-46.81,-10.56 -56.09,-11.71 -64.27,-9.15C-65.88,-8.65 -67.5,-7.97 -68.66,-6.76C-69.82,-5.55 -70.45,-3.67 -69.78,-2.12C-69.08,-0.489 -67.2,0.34 -65.43,0.43C-63.66,0.52 -61.92,0.04 -60.16,-0.19C-52.29,-1.22 -44.58,2.84 -38.59,8.051C-32.6,13.261 -27.75,19.67 -21.72,24.83C-15.68,29.98 -7.87,33.91 -0.03,32.67C-0.06,29.24 -0.08,25.82 0,22.2Z" style="fill:rgb(77,154,208);fill-rule:nonzero;stroke:rgb(66,39,36);stroke-width:1px;"/>
    </g>
    <g transform="matrix(-2.303401,-3.472096,-3.472096,2.303401,404.255886,504.879515)">
        <path d="M-16.095,-24.067C-17.963,-14.763 -18.417,-5.174 -17.471,4.267C-17.343,5.562 -17.113,6.994 -16.095,7.806C-14.73,8.905 -12.679,8.324 -11.204,7.382C-6.507,4.386 -4.331,-1.27 -0.619,-5.425" style="fill:rgb(77,154,208);fill-rule:nonzero;stroke:rgb(66,39,36);stroke-width:1px;"/>
    </g>
    <g transform="matrix(4.166667,0,0,4.166667,383.598945,593.327365)">
        <path d="M0,-45.22C5.26,-44.311 10.55,-42.59 14.59,-39.101C18.63,-35.611 21.19,-30.061 20.03,-24.851C19.39,-21.96 17.68,-19.391 15.58,-17.29C13.48,-15.191 11.02,-13.51 8.58,-11.93C10.98,-11.95 13.42,-11.97 15.72,-11.281C18.02,-10.59 20.19,-9.061 21.04,-6.821C21.9,-4.58 21.05,-1.651 18.86,-0.67C17.34,0 15.59,-0.34 13.96,-0.641C7.85,-1.781 1.62,-2.25 -4.6,-2.04C-6.9,-1.96 -9.23,-1.8 -11.46,-2.361C-13.69,-2.92 -15.85,-4.351 -16.59,-6.531C-17.34,-8.7 -16.14,-11.54 -13.76,-12.38C-18.78,-13.83 -23.07,-17.63 -25.13,-22.431C-27.19,-27.231 -26.97,-32.96 -24.56,-37.59" style="fill:rgb(77,154,208);fill-rule:nonzero;stroke:rgb(66,39,36);stroke-width:1px;"/>
    </g>
    <g transform="matrix(4.166667,0,0,4.166667,694.683112,100.409449)">
        <path d="M0,0.01C0,0.01 -28.22,-27.36 -41.44,-23.16C-47.22,-21.33 -54.36,17 -48.65,27.37" style="fill:rgb(77,154,208);fill-rule:nonzero;stroke:rgb(66,39,36);stroke-width:1px;"/>
    </g>
    <g transform="matrix(4.166667,0,0,4.166667,749.641029,91.744449)">
        <path d="M0,84.239C-0.37,84.319 -0.74,84.399 -1.11,84.469C-13.54,86.609 -22.72,86.319 -28.25,85.67C-57.51,82.229 -75.93,75.929 -75.93,47.13C-75.93,14.679 -59.88,-2.37 -33.93,-2.37C3.5,-2.37 20.31,24.069 16.07,53.13C15.83,54.79 15.52,56.38 15.17,57.91C15.15,57.96 15.14,58.019 15.13,58.069C16.6,58.179 19.22,58.739 20.09,61.359C22.83,69.569 14.78,80.969 0,84.239" style="fill:rgb(77,154,208);fill-rule:nonzero;"/>
    </g>
    <g transform="matrix(4.166667,0,0,4.166667,749.641029,91.744449)">
        <path d="M0,84.239C-0.37,84.319 -0.74,84.399 -1.11,84.469C-13.54,86.609 -22.72,86.319 -28.25,85.67C-57.51,82.229 -75.93,75.929 -75.93,47.13C-75.93,14.679 -59.88,-2.37 -33.93,-2.37C3.5,-2.37 20.31,24.069 16.07,53.13C15.83,54.79 15.52,56.38 15.17,57.91C15.15,57.96 15.14,58.019 15.13,58.069C16.6,58.179 19.22,58.739 20.09,61.359C22.83,69.569 14.78,80.969 0,84.239Z" style="fill:none;fill-rule:nonzero;stroke:rgb(66,39,36);stroke-width:1px;"/>
    </g>
    <g transform="matrix(4.166667,0,0,4.166667,552.932695,274.662782)">
        <path d="M0,-43.801C0,-43.801 -40.84,-50.28 -50.06,-39.291C-54.09,-34.49 -38.07,1.179 -27,6.479" style="fill:rgb(77,154,208);fill-rule:nonzero;stroke:rgb(66,39,36);stroke-width:1px;"/>
    </g>
    <g transform="matrix(4.166667,0,0,4.166667,363.182695,269.659032)">
        <path d="M0,-33.77C12.44,-36.18 20.75,-23.6 36.73,-25.81C40.84,-26.38 28.26,2.41 19.73,1.59C13.58,1.32 -3.87,-33.02 0,-33.77" style="fill:rgb(240,193,175);fill-rule:nonzero;"/>
    </g>
    <g transform="matrix(4.166667,0,0,4.166667,363.182695,269.659032)">
        <path d="M0,-33.77C12.44,-36.18 20.75,-23.6 36.73,-25.81C40.84,-26.38 28.26,2.41 19.73,1.59C13.58,1.32 -3.87,-33.02 0,-33.77Z" style="fill:none;fill-rule:nonzero;stroke:rgb(66,39,36);stroke-width:1px;"/>
    </g>
    <g transform="matrix(-4.166667,0,0,4.166667,733.723112,360.869032)">
        <path d="M0,-8.76C-1.381,-8.76 -2.5,-6.799 -2.5,-4.38C-2.5,-1.961 -1.381,0 0,0C1.38,0 2.5,-1.961 2.5,-4.38C2.5,-6.799 1.38,-8.76 0,-8.76" style="fill:rgb(66,39,36);fill-rule:nonzero;"/>
    </g>
    <g transform="matrix(4.166667,0,0,4.166667,749.641029,333.994449)">
        <path d="M0,26.099C-0.37,26.179 -0.74,26.259 -1.11,26.329C-1.14,26.24 -1.17,26.16 -1.19,26.07C-3.06,19.089 -1.06,11.2 3.91,5.95C6.9,2.789 10.91,0.65 15.17,-0.23C15.15,-0.18 15.14,-0.121 15.13,-0.071C16.6,0.039 19.22,0.599 20.09,3.219C22.83,11.429 14.78,22.829 0,26.099" style="fill:rgb(230,249,255);fill-rule:nonzero;"/>
    </g>
    <g transform="matrix(4.166667,0,0,4.166667,749.641029,333.994449)">
        <path d="M0,26.099C-0.37,26.179 -0.74,26.259 -1.11,26.329C-1.14,26.24 -1.17,26.16 -1.19,26.07C-3.06,19.089 -1.06,11.2 3.91,5.95C6.9,2.789 10.91,0.65 15.17,-0.23C15.15,-0.18 15.14,-0.121 15.13,-0.071C16.6,0.039 19.22,0.599 20.09,3.219C22.83,11.429 14.78,22.829 0,26.099Z" style="fill:none;fill-rule:nonzero;stroke:rgb(66,39,36);stroke-width:1px;"/>
    </g>
    <g transform="matrix(4.166667,0,0,4.166667,817.390195,368.541532)">
        <path d="M0,-8.202C0.14,-9.021 2.56,-9.271 4.91,-8.882C9.86,-8.072 6.39,1.069 4.19,0.288C3.09,-0.101 -0.2,-7.032 0,-8.202" style="fill:rgb(66,39,36);fill-rule:nonzero;"/>
    </g>
</svg>
