<?xml version="1.0" encoding="UTF-8" standalone="no"?>
<!DOCTYPE svg PUBLIC "-//W3C//DTD SVG 1.1//EN" "http://www.w3.org/Graphics/SVG/1.1/DTD/svg11.dtd">
<svg width="100%" height="100%" viewBox="0 0 865 641" version="1.1" xmlns="http://www.w3.org/2000/svg" xmlns:xlink="http://www.w3.org/1999/xlink" xml:space="preserve" xmlns:serif="http://www.serif.com/" style="fill-rule:evenodd;clip-rule:evenodd;stroke-linecap:round;stroke-linejoin:round;stroke-miterlimit:10;">
    <g transform="matrix(4.166667,0,0,4.166667,524.243732,619.159865)">
        <path d="M0,-16.16C-1.42,-11.591 -2.85,-7.011 -4.27,-2.44C-4.76,-0.86 -5.359,0.86 -6.8,1.72C-8.689,2.86 -11.31,1.93 -12.689,0.239C-14.08,-1.461 -14.52,-3.69 -14.83,-5.841C-15.459,-10.2 -15.75,-14.64 -15.25,-19.02" style="fill:rgb(77,154,208);fill-rule:nonzero;stroke:rgb(66,39,36);stroke-width:1px;"/>
    </g>
    <g transform="matrix(4.166667,0,0,4.166667,283.620815,456.289865)">
        <path d="M0,15.378C-3.66,7.259 -0.05,-4.672 6.25,-10.972C12.55,-17.271 21.68,-18.771 30.35,-16.741C34.79,-15.702 38.91,-13.531 43.38,-12.642C47.85,-11.752 53.14,-12.512 55.34,-15.932C65.97,-13.422 76.6,-10.922 86.45,-7.481C85.49,3.358 81.6,13.509 73.19,20.759C57.64,34.149 39.48,25.528 36.19,25.019C24.22,23.158 4.23,24.778 0,15.378" style="fill:rgb(77,154,208);fill-rule:nonzero;"/>
    </g>
    <g transform="matrix(4.166667,0,0,4.166667,283.620815,456.289865)">
        <path d="M0,15.378C-3.66,7.259 -0.05,-4.672 6.25,-10.972C12.55,-17.271 21.68,-18.771 30.35,-16.741C34.79,-15.702 38.91,-13.531 43.38,-12.642C47.85,-11.752 53.14,-12.512 55.34,-15.932C65.97,-13.422 76.6,-10.922 86.45,-7.481C85.49,3.358 81.6,13.509 73.19,20.759C57.64,34.149 39.48,25.528 36.19,25.019C24.22,23.158 4.23,24.778 0,15.378Z" style="fill:none;fill-rule:nonzero;stroke:rgb(66,39,36);stroke-width:1px;"/>
    </g>
    <g transform="matrix(4.166667,0,0,4.166667,296.120815,372.866532)">
        <path d="M0,28.8C-6.04,28.84 -11.14,24.16 -14.26,19C-17.39,13.83 -19.23,7.94 -22.63,2.95C-26.53,-2.77 -32.39,-7.05 -38.87,-9.5C-45.35,-11.95 -52.43,-12.62 -59.33,-11.94C-62.53,-11.62 -65.86,-10.95 -68.33,-8.88C-69.35,-8.03 -70.2,-6.92 -70.48,-5.63C-70.76,-4.34 -70.38,-2.85 -69.33,-2.05C-68.02,-1.06 -66.19,-1.34 -64.56,-1.59C-52.12,-3.53 -38.37,-0.17 -30.03,9.25C-26.57,13.16 -24.19,17.87 -21.74,22.48C-19.3,27.09 -16.7,31.72 -12.93,35.33C-9.16,38.93 -3.99,41.42 1.19,40.82C0.07,36.98 -0.11,32.86 0,28.8Z" style="fill:rgb(77,154,208);fill-rule:nonzero;stroke:rgb(66,39,36);stroke-width:1px;"/>
    </g>
    <g transform="matrix(4.166667,0,0,4.166667,292.869565,639.864449)">
        <path d="M0,-49.299C-5.69,-39.76 -4.99,-26.789 1.92,-17.749C0.27,-16.369 -1.41,-14.949 -2.46,-13.07C-3.51,-11.199 -3.8,-8.739 -2.62,-6.949C-1.05,-4.56 2.29,-4.26 5.15,-4.279C15.26,-4.329 25.72,-5.199 35.14,-1.529C36.91,-0.839 38.78,0.011 40.62,-0.459C43.05,-1.089 44.36,-4.049 43.72,-6.48C43.09,-8.909 40.96,-10.72 38.63,-11.64C36.3,-12.56 33.74,-12.709 31.21,-13.419C36.42,-14.279 40.74,-18.529 42.3,-23.57C43.86,-28.61 42.84,-34.249 40.16,-38.799C37.48,-43.35 33.27,-46.86 28.59,-49.31" style="fill:rgb(77,154,208);fill-rule:nonzero;stroke:rgb(66,39,36);stroke-width:1px;"/>
    </g>
    <g transform="matrix(4.166667,0,0,4.166667,575.329982,634.072365)">
        <path d="M0,-32.239C-0.311,-23.949 1,-15.609 3.83,-7.819C4.51,-5.949 5.26,-3.809 4.3,-2.08C3.51,-0.649 1.75,0 0.12,0C-2.271,0 -4.561,-1.139 -6.33,-2.75C-8.101,-4.359 -9.41,-6.409 -10.561,-8.5C-13.86,-14.489 -16.09,-21.069 -17.101,-27.83" style="fill:rgb(77,154,208);fill-rule:nonzero;stroke:rgb(66,39,36);stroke-width:1px;"/>
    </g>
    <g transform="matrix(4.166667,0,0,4.166667,710.453732,100.405282)">
        <path d="M0,0.011C0,0.011 -28.22,-27.359 -41.44,-23.159C-47.22,-21.329 -54.36,17 -48.65,27.37" style="fill:rgb(77,154,208);fill-rule:nonzero;stroke:rgb(66,39,36);stroke-width:1px;"/>
    </g>
    <g transform="matrix(4.166667,0,0,4.166667,765.413732,91.781115)">
        <path d="M0,84.241C-0.37,84.32 -0.74,84.4 -1.11,84.47C-13.54,86.61 -22.721,86.32 -28.25,85.671C-57.511,82.23 -75.931,75.93 -75.931,47.131C-75.931,14.68 -59.881,-2.369 -33.931,-2.369C3.5,-2.369 20.31,24.07 16.069,53.131C15.829,54.791 15.52,56.381 15.17,57.911C15.149,57.961 15.14,58.02 15.13,58.07C16.6,58.18 19.22,58.741 20.09,61.36C22.829,69.57 14.779,80.97 0,84.241" style="fill:rgb(77,154,208);fill-rule:nonzero;"/>
    </g>
    <g transform="matrix(4.166667,0,0,4.166667,765.413732,91.781115)">
        <path d="M0,84.241C-0.37,84.32 -0.74,84.4 -1.11,84.47C-13.54,86.61 -22.721,86.32 -28.25,85.671C-57.511,82.23 -75.931,75.93 -75.931,47.131C-75.931,14.68 -59.881,-2.369 -33.931,-2.369C3.5,-2.369 20.31,24.07 16.069,53.131C15.829,54.791 15.52,56.381 15.17,57.911C15.149,57.961 15.14,58.02 15.13,58.07C16.6,58.18 19.22,58.741 20.09,61.36C22.829,69.57 14.779,80.97 0,84.241Z" style="fill:none;fill-rule:nonzero;stroke:rgb(66,39,36);stroke-width:1px;"/>
    </g>
    <g transform="matrix(4.166667,0,0,4.166667,568.746232,274.703199)">
        <path d="M0,-43.801C0,-43.801 -40.84,-50.28 -50.06,-39.291C-54.09,-34.49 -38.07,1.179 -27,6.479" style="fill:rgb(77,154,208);fill-rule:nonzero;stroke:rgb(66,39,36);stroke-width:1px;"/>
    </g>
    <g transform="matrix(4.166667,0,0,4.166667,378.996232,269.659032)">
        <path d="M0,-33.77C12.44,-36.18 20.75,-23.6 36.729,-25.81C40.84,-26.38 28.26,2.41 19.73,1.589C13.58,1.32 -3.88,-33.01 0,-33.77" style="fill:rgb(240,193,175);fill-rule:nonzero;"/>
    </g>
    <g transform="matrix(4.166667,0,0,4.166667,378.996232,269.659032)">
        <path d="M0,-33.77C12.44,-36.18 20.75,-23.6 36.729,-25.81C40.84,-26.38 28.26,2.41 19.73,1.589C13.58,1.32 -3.88,-33.01 0,-33.77Z" style="fill:none;fill-rule:nonzero;stroke:rgb(66,39,36);stroke-width:1px;"/>
    </g>
    <g transform="matrix(-4.166667,0,0,4.166667,749.536649,360.909449)">
        <path d="M0,-8.76C-1.381,-8.76 -2.5,-6.799 -2.5,-4.38C-2.5,-1.961 -1.381,0 0,0C1.381,0 2.5,-1.961 2.5,-4.38C2.5,-6.799 1.381,-8.76 0,-8.76" style="fill:rgb(66,39,36);fill-rule:nonzero;"/>
    </g>
    <g transform="matrix(4.166667,0,0,4.166667,765.413732,334.031115)">
        <path d="M0,26.101C-0.37,26.18 -0.74,26.26 -1.11,26.33C-1.141,26.241 -1.171,26.161 -1.19,26.071C-3.061,19.09 -1.061,11.201 3.909,5.951C6.899,2.79 10.909,0.651 15.17,-0.229C15.149,-0.179 15.14,-0.12 15.13,-0.07C16.6,0.04 19.22,0.601 20.09,3.22C22.829,11.43 14.779,22.83 0,26.101" style="fill:rgb(230,249,255);fill-rule:nonzero;"/>
    </g>
    <g transform="matrix(4.166667,0,0,4.166667,765.413732,334.031115)">
        <path d="M0,26.101C-0.37,26.18 -0.74,26.26 -1.11,26.33C-1.141,26.241 -1.171,26.161 -1.19,26.071C-3.061,19.09 -1.061,11.201 3.909,5.951C6.899,2.79 10.909,0.651 15.17,-0.229C15.149,-0.179 15.14,-0.12 15.13,-0.07C16.6,0.04 19.22,0.601 20.09,3.22C22.829,11.43 14.779,22.83 0,26.101Z" style="fill:none;fill-rule:nonzero;stroke:rgb(66,39,36);stroke-width:1px;"/>
    </g>
    <g transform="matrix(4.166667,0,0,4.166667,833.162899,368.581949)">
        <path d="M0,-8.202C0.14,-9.021 2.56,-9.271 4.91,-8.882C9.859,-8.072 6.39,1.069 4.189,0.288C3.1,-0.112 -0.19,-7.032 0,-8.202" style="fill:rgb(66,39,36);fill-rule:nonzero;"/>
    </g>
</svg>
