<?xml version="1.0" encoding="UTF-8" standalone="no"?>
<!DOCTYPE svg PUBLIC "-//W3C//DTD SVG 1.1//EN" "http://www.w3.org/Graphics/SVG/1.1/DTD/svg11.dtd">
<svg width="100%" height="100%" viewBox="0 0 843 645" version="1.1" xmlns="http://www.w3.org/2000/svg" xmlns:xlink="http://www.w3.org/1999/xlink" xml:space="preserve" xmlns:serif="http://www.serif.com/" style="fill-rule:evenodd;clip-rule:evenodd;stroke-linecap:round;stroke-linejoin:round;stroke-miterlimit:10;">
    <g transform="matrix(4.166667,0,0,4.166667,570.542273,639.159032)">
        <path d="M0,-32.16C0.97,-24.27 3.45,-16.55 7.29,-9.55C7.98,-8.28 8.73,-7.02 9.06,-5.62C9.39,-4.22 9.24,-2.63 8.28,-1.54C7.24,-0.35 5.45,0 3.88,-0.31C2.31,-0.62 0.92,-1.48 -0.39,-2.38C-8.72,-8.12 -15.29,-16.29 -19.04,-25.58" style="fill:rgb(77,154,208);fill-rule:nonzero;stroke:rgb(66,39,36);stroke-width:1px;"/>
    </g>
    <g transform="matrix(4.166667,0,0,4.166667,306.206857,338.617782)">
        <path d="M0,13.65C-10.289,6.14 -21.35,-0.85 -33.789,-3.63C-46.229,-6.41 -60.369,-4.32 -69.579,4.48C-70.88,5.72 -72.09,7.12 -72.67,8.81C-73.249,10.51 -73.079,12.55 -71.85,13.86C-70.369,15.44 -67.8,15.5 -65.789,14.71C-63.77,13.91 -62.109,12.44 -60.329,11.2C-52.18,5.55 -41.35,5 -31.739,7.45C-22.13,9.9 -13.449,15.01 -4.92,20.06C-3.27,18.19 -1.63,16.31 0,13.65Z" style="fill:rgb(77,154,208);fill-rule:nonzero;stroke:rgb(66,39,36);stroke-width:1px;"/>
    </g>
    <g transform="matrix(4.166667,0,0,4.166667,306.626023,383.618199)">
        <path d="M0,36.87C-6.021,32.65 -10.73,27.26 -10.98,19.91C-11.271,11.4 -5.96,3.4 1.68,-0.37C9.32,-4.14 18.41,-4.12 26.63,-1.9C34.85,0.32 42.36,4.6 50.2,8.7C56.04,8.16 61.84,7.22 68.25,6.94C69.58,13.06 69.52,19.5 68.32,25.4C67.26,30.59 64.05,34.95 59.39,37.47C54.729,39.99 49.05,40.55 43.99,38.99C41.02,38.07 38.25,36.46 35.16,36.09C30.64,35.55 26.319,37.75 21.95,39.04C15.26,41.01 5.229,40.53 0,36.87" style="fill:rgb(77,154,208);fill-rule:nonzero;"/>
    </g>
    <g transform="matrix(4.166667,0,0,4.166667,306.626023,383.618199)">
        <path d="M0,36.87C-6.021,32.65 -10.73,27.26 -10.98,19.91C-11.271,11.4 -5.96,3.4 1.68,-0.37C9.32,-4.14 18.41,-4.12 26.63,-1.9C34.85,0.32 42.36,4.6 50.2,8.7C56.04,8.16 61.84,7.22 68.25,6.94C69.58,13.06 69.52,19.5 68.32,25.4C67.26,30.59 64.05,34.95 59.39,37.47C54.729,39.99 49.05,40.55 43.99,38.99C41.02,38.07 38.25,36.46 35.16,36.09C30.64,35.55 26.319,37.75 21.95,39.04C15.26,41.01 5.229,40.53 0,36.87Z" style="fill:none;fill-rule:nonzero;stroke:rgb(66,39,36);stroke-width:1px;"/>
    </g>
    <g transform="matrix(4.166667,0,0,4.166667,484.002273,643.117782)">
        <path d="M0,-34.18C-4.301,-26.23 -6.561,-17.17 -6.49,-8.13C-6.471,-5.54 -6.48,-2.48 -8.61,-1C-10.051,0 -12.07,-0.15 -13.62,-0.99C-15.16,-1.83 -16.311,-3.24 -17.29,-4.7C-22.261,-12.12 -23.761,-21.77 -21.25,-30.34" style="fill:rgb(77,154,208);fill-rule:nonzero;stroke:rgb(66,39,36);stroke-width:1px;"/>
    </g>
    <g transform="matrix(4.166667,0,0,4.166667,292.91769,643.951532)">
        <path d="M0,-59.53C-3.8,-56.45 -7.01,-51.48 -8.021,-46.15C-9.03,-40.82 -7.96,-35.13 -5.58,-30.32C-6.86,-31.13 -8.72,-30.38 -9.41,-29.03C-10.1,-27.68 -9.82,-26 -9.08,-24.68C-8.33,-23.36 -7.17,-22.34 -6.03,-21.34C-3.11,-18.77 -0.19,-16.2 2.729,-13.63C7.29,-9.62 11.84,-5.61 16.4,-1.6C16.92,-1.14 17.47,-0.66 18.15,-0.48C19.939,0 21.55,-1.76 22.229,-3.49C23.91,-7.82 22.57,-13.14 19.21,-16.58C24.62,-17.13 29.04,-21.75 30.5,-26.99C31.96,-32.23 30.9,-37.89 28.81,-42.91C26.859,-47.57 23.729,-52.12 19.01,-53.91" style="fill:rgb(77,154,208);fill-rule:nonzero;stroke:rgb(66,39,36);stroke-width:1px;"/>
    </g>
    <g transform="matrix(2.599385,3.256426,3.256426,-2.599385,283.969337,512.114206)">
        <path d="M-1.634,-3.395C1.079,-3.923 4.584,-3.829 7.054,-3.395" style="fill:none;fill-rule:nonzero;stroke:rgb(66,39,36);stroke-width:1px;"/>
    </g>
    <g transform="matrix(4.166667,0,0,4.166667,689.084773,100.409449)">
        <path d="M0,0.01C0,0.01 -28.22,-27.36 -41.44,-23.16C-47.221,-21.33 -54.36,17 -48.65,27.37" style="fill:rgb(77,154,208);fill-rule:nonzero;stroke:rgb(66,39,36);stroke-width:1px;"/>
    </g>
    <g transform="matrix(4.166667,0,0,4.166667,744.040607,91.784865)">
        <path d="M0,84.24C-0.369,84.32 -0.739,84.4 -1.109,84.47C-13.54,86.61 -22.72,86.32 -28.25,85.67C-57.51,82.23 -75.93,75.93 -75.93,47.13C-75.93,14.68 -59.88,-2.37 -33.93,-2.37C3.5,-2.37 20.311,24.07 16.07,53.13C15.83,54.79 15.521,56.38 15.17,57.91C15.15,57.96 15.141,58.02 15.131,58.07C16.601,58.18 19.221,58.74 20.091,61.36C22.83,69.57 14.78,80.97 0,84.24" style="fill:rgb(77,154,208);fill-rule:nonzero;"/>
    </g>
    <g transform="matrix(4.166667,0,0,4.166667,744.040607,91.784865)">
        <path d="M0,84.24C-0.369,84.32 -0.739,84.4 -1.109,84.47C-13.54,86.61 -22.72,86.32 -28.25,85.67C-57.51,82.23 -75.93,75.93 -75.93,47.13C-75.93,14.68 -59.88,-2.37 -33.93,-2.37C3.5,-2.37 20.311,24.07 16.07,53.13C15.83,54.79 15.521,56.38 15.17,57.91C15.15,57.96 15.141,58.02 15.131,58.07C16.601,58.18 19.221,58.74 20.091,61.36C22.83,69.57 14.78,80.97 0,84.24Z" style="fill:none;fill-rule:nonzero;stroke:rgb(66,39,36);stroke-width:1px;"/>
    </g>
    <g transform="matrix(4.166667,0,0,4.166667,547.377273,274.658199)">
        <path d="M0,-43.8C0,-43.8 -40.841,-50.28 -50.061,-39.29C-54.091,-34.49 -38.07,1.18 -27,6.48" style="fill:rgb(77,154,208);fill-rule:nonzero;stroke:rgb(66,39,36);stroke-width:1px;"/>
    </g>
    <g transform="matrix(4.166667,0,0,4.166667,357.582273,269.658615)">
        <path d="M0,-33.77C12.44,-36.18 20.75,-23.6 36.73,-25.81C40.84,-26.38 28.261,2.41 19.73,1.59C13.58,1.32 -3.869,-33.02 0,-33.77" style="fill:rgb(240,193,175);fill-rule:nonzero;"/>
    </g>
    <g transform="matrix(4.166667,0,0,4.166667,357.582273,269.658615)">
        <path d="M0,-33.77C12.44,-36.18 20.75,-23.6 36.73,-25.81C40.84,-26.38 28.261,2.41 19.73,1.59C13.58,1.32 -3.869,-33.02 0,-33.77Z" style="fill:none;fill-rule:nonzero;stroke:rgb(66,39,36);stroke-width:1px;"/>
    </g>
    <g transform="matrix(-4.166667,0,0,4.166667,728.126857,360.866532)">
        <path d="M0,-8.76C-1.381,-8.76 -2.5,-6.799 -2.5,-4.38C-2.5,-1.961 -1.381,0 0,0C1.381,0 2.5,-1.961 2.5,-4.38C2.5,-6.799 1.381,-8.76 0,-8.76" style="fill:rgb(66,39,36);fill-rule:nonzero;"/>
    </g>
    <g transform="matrix(4.166667,0,0,4.166667,744.040607,334.034865)">
        <path d="M0,26.1C-0.369,26.18 -0.739,26.26 -1.109,26.33C-1.14,26.24 -1.17,26.16 -1.189,26.07C-3.06,19.09 -1.06,11.2 3.91,5.95C6.9,2.79 10.91,0.65 15.17,-0.23C15.15,-0.18 15.141,-0.12 15.131,-0.07C16.601,0.04 19.221,0.6 20.091,3.22C22.83,11.43 14.78,22.83 0,26.1" style="fill:rgb(230,249,255);fill-rule:nonzero;"/>
    </g>
    <g transform="matrix(4.166667,0,0,4.166667,744.040607,334.034865)">
        <path d="M0,26.1C-0.369,26.18 -0.739,26.26 -1.109,26.33C-1.14,26.24 -1.17,26.16 -1.189,26.07C-3.06,19.09 -1.06,11.2 3.91,5.95C6.9,2.79 10.91,0.65 15.17,-0.23C15.15,-0.18 15.141,-0.12 15.131,-0.07C16.601,0.04 19.221,0.6 20.091,3.22C22.83,11.43 14.78,22.83 0,26.1Z" style="fill:none;fill-rule:nonzero;stroke:rgb(66,39,36);stroke-width:1px;"/>
    </g>
    <g transform="matrix(4.166667,0,0,4.166667,811.79394,368.575699)">
        <path d="M0,-8.2C0.14,-9.02 2.56,-9.27 4.909,-8.88C9.859,-8.07 6.39,1.07 4.189,0.29C3.09,-0.11 -0.2,-7.04 0,-8.2" style="fill:rgb(66,39,36);fill-rule:nonzero;"/>
    </g>
</svg>
