<?xml version="1.0" encoding="UTF-8" standalone="no"?>
<!DOCTYPE svg PUBLIC "-//W3C//DTD SVG 1.1//EN" "http://www.w3.org/Graphics/SVG/1.1/DTD/svg11.dtd">
<svg width="100%" height="100%" viewBox="0 0 875 682" version="1.1" xmlns="http://www.w3.org/2000/svg" xmlns:xlink="http://www.w3.org/1999/xlink" xml:space="preserve" xmlns:serif="http://www.serif.com/" style="fill-rule:evenodd;clip-rule:evenodd;stroke-linecap:round;stroke-linejoin:round;stroke-miterlimit:10;">
    <g transform="matrix(4.166667,0,0,4.166667,415.313625,607.825699)">
        <path d="M0,-11.6C-7.09,-5.07 -17.44,-1.49 -26.66,-4.34C-29.21,-5.13 -31.66,-6.38 -34.32,-6.51C-37.45,-6.66 -40.45,-5.23 -43.03,-3.45C-45.61,-1.67 -47.92,0.49 -50.6,2.11C-53.85,4.07 -57.61,5.19 -61.4,5.31C-63.51,5.38 -66.15,4.73 -66.58,2.66C-66.93,0.98 -65.57,-0.52 -64.33,-1.69C-58.94,-6.79 -53.54,-11.88 -48.15,-16.98" style="fill:rgb(77,154,208);fill-rule:nonzero;stroke:rgb(66,39,36);stroke-width:1px;"/>
    </g>
    <g transform="matrix(4.166667,0,0,4.166667,636.561958,543.491949)">
        <path d="M0,-22.26C11.14,-19.32 22.29,-16.39 33.43,-13.45C35.9,-12.8 38.48,-12.09 40.34,-10.33C42.19,-8.57 42.99,-5.41 41.36,-3.44C40.15,-1.98 38.08,-1.63 36.2,-1.42C23.56,0 10.71,-0.46 -1.8,-2.77" style="fill:rgb(77,154,208);fill-rule:nonzero;stroke:rgb(66,39,36);stroke-width:1px;"/>
    </g>
    <g transform="matrix(4.166667,0,0,4.166667,354.813625,355.409865)">
        <path d="M0,12.2C-14.23,11.12 -26.05,0.97 -39.7,-3.18C-49.74,-6.24 -60.54,-5.95 -70.89,-4.2C-74.83,-3.53 -78.87,-2.59 -82.04,-0.17C-83.3,0.79 -84.45,2.08 -84.63,3.66C-84.91,6.03 -82.82,8.17 -80.5,8.77C-78.19,9.37 -75.75,8.83 -73.43,8.26C-63.64,5.82 -53.6,2.69 -43.65,4.36C-30.22,6.62 -19.16,17.34 -5.52,18.44C-3.85,16.59 -2.18,14.74 0,12.2Z" style="fill:rgb(77,154,208);fill-rule:nonzero;stroke:rgb(66,39,36);stroke-width:1px;"/>
    </g>
    <g transform="matrix(-2.143533,-3.573007,-3.573007,2.143533,362.972533,446.373412)">
        <path d="M-21.477,-46.241C-17.793,-21.886 13.596,-15.458 11.52,3.688C9.739,20.138 -7.934,23.044 -21.477,15.204C-49.744,0.373 -75.938,-43.095 -35.563,-60.507C-31.844,-55.532 -26.624,-49.824 -21.477,-46.241Z" style="fill:rgb(77,154,208);fill-rule:nonzero;stroke:rgb(66,39,36);stroke-width:1px;"/>
    </g>
    <g transform="matrix(4.166667,0,0,4.166667,347.395708,604.951532)">
        <path d="M0,-48.71C-5.56,-47.25 -9.77,-42.72 -13.51,-38.35C-16.53,-34.82 -19.56,-31.09 -23.42,-28.4C-25.04,-27.27 -27.06,-26.93 -28.99,-27.33C-31.37,-27.84 -33.81,-28.01 -35.97,-27C-38.21,-25.96 -39.71,-23.84 -41.26,-21.93C-44.81,-17.59 -49.15,-13.9 -54.02,-11.11C-56.37,-9.76 -59.14,-8.23 -59.15,-5.33C-59.15,-4.22 -58.68,-3.14 -57.93,-2.32C-56.22,-0.46 -53.7,0 -51.31,-0.07C-42.86,-0.31 -35.43,-7.38 -27.39,-6.74C-14.7,-3.49 -0.54,-5.57 9.65,-13.81" style="fill:rgb(77,154,208);fill-rule:nonzero;stroke:rgb(66,39,36);stroke-width:1px;"/>
    </g>
    <g transform="matrix(4.166667,0,0,4.166667,617.187375,680.034449)">
        <path d="M0,-37.06C8.29,-28.7 15.89,-19.67 22.7,-10.07C23.85,-8.45 25.02,-6.63 24.79,-4.66C24.6,-3 23.37,-1.57 21.86,-0.84C20.35,-0.11 18.61,0 16.95,-0.2C12.28,-0.76 8.25,-3.59 4.43,-6.33C-3.53,-12.04 -11.48,-17.74 -19.44,-23.45" style="fill:rgb(77,154,208);fill-rule:nonzero;stroke:rgb(66,39,36);stroke-width:1px;"/>
    </g>
    <g transform="matrix(4.166667,0,0,4.166667,720.646125,100.409449)">
        <path d="M0,0.01C0,0.01 -28.22,-27.36 -41.44,-23.16C-47.22,-21.33 -54.36,17 -48.65,27.37" style="fill:rgb(77,154,208);fill-rule:nonzero;stroke:rgb(66,39,36);stroke-width:1px;"/>
    </g>
    <g transform="matrix(4.166667,0,0,4.166667,775.604041,91.784865)">
        <path d="M0,84.24C-0.37,84.32 -0.74,84.4 -1.11,84.47C-13.54,86.61 -22.72,86.32 -28.25,85.67C-57.51,82.23 -75.93,75.93 -75.93,47.13C-75.93,14.68 -59.88,-2.37 -33.93,-2.37C3.5,-2.37 20.31,24.07 16.07,53.13C15.83,54.79 15.52,56.38 15.17,57.91C15.15,57.96 15.14,58.02 15.13,58.07C16.6,58.18 19.22,58.74 20.09,61.36C22.83,69.57 14.78,80.97 0,84.24" style="fill:rgb(77,154,208);fill-rule:nonzero;"/>
    </g>
    <g transform="matrix(4.166667,0,0,4.166667,775.604041,91.784865)">
        <path d="M0,84.24C-0.37,84.32 -0.74,84.4 -1.11,84.47C-13.54,86.61 -22.72,86.32 -28.25,85.67C-57.51,82.23 -75.93,75.93 -75.93,47.13C-75.93,14.68 -59.88,-2.37 -33.93,-2.37C3.5,-2.37 20.31,24.07 16.07,53.13C15.83,54.79 15.52,56.38 15.17,57.91C15.15,57.96 15.14,58.02 15.13,58.07C16.6,58.18 19.22,58.74 20.09,61.36C22.83,69.57 14.78,80.97 0,84.24Z" style="fill:none;fill-rule:nonzero;stroke:rgb(66,39,36);stroke-width:1px;"/>
    </g>
    <g transform="matrix(4.166667,0,0,4.166667,578.938625,274.701115)">
        <path d="M0,-43.8C0,-43.8 -40.84,-50.28 -50.06,-39.29C-54.09,-34.49 -38.07,1.18 -27,6.48" style="fill:rgb(77,154,208);fill-rule:nonzero;stroke:rgb(66,39,36);stroke-width:1px;"/>
    </g>
    <g transform="matrix(4.166667,0,0,4.166667,389.188625,269.701532)">
        <path d="M0,-33.77C12.44,-36.18 20.75,-23.6 36.73,-25.81C40.84,-26.38 28.26,2.41 19.73,1.59C13.58,1.31 -3.87,-33.02 0,-33.77" style="fill:rgb(240,193,175);fill-rule:nonzero;"/>
    </g>
    <g transform="matrix(4.166667,0,0,4.166667,389.188625,269.701532)">
        <path d="M0,-33.77C12.44,-36.18 20.75,-23.6 36.73,-25.81C40.84,-26.38 28.26,2.41 19.73,1.59C13.58,1.31 -3.87,-33.02 0,-33.77Z" style="fill:none;fill-rule:nonzero;stroke:rgb(66,39,36);stroke-width:1px;"/>
    </g>
    <g transform="matrix(-4.166667,0,0,4.166667,759.729041,360.909449)">
        <path d="M0,-8.76C-1.381,-8.76 -2.5,-6.799 -2.5,-4.38C-2.5,-1.961 -1.381,0 0,0C1.38,0 2.5,-1.961 2.5,-4.38C2.5,-6.799 1.38,-8.76 0,-8.76" style="fill:rgb(66,39,36);fill-rule:nonzero;"/>
    </g>
    <g transform="matrix(4.166667,0,0,4.166667,775.604041,334.034865)">
        <path d="M0,26.1C-0.37,26.18 -0.74,26.26 -1.11,26.33C-1.14,26.24 -1.17,26.16 -1.19,26.07C-3.06,19.09 -1.06,11.2 3.91,5.95C6.9,2.79 10.91,0.65 15.17,-0.23C15.15,-0.18 15.14,-0.12 15.13,-0.07C16.6,0.04 19.22,0.6 20.09,3.22C22.83,11.43 14.78,22.83 0,26.1" style="fill:rgb(230,249,255);fill-rule:nonzero;"/>
    </g>
    <g transform="matrix(4.166667,0,0,4.166667,775.604041,334.034865)">
        <path d="M0,26.1C-0.37,26.18 -0.74,26.26 -1.11,26.33C-1.14,26.24 -1.17,26.16 -1.19,26.07C-3.06,19.09 -1.06,11.2 3.91,5.95C6.9,2.79 10.91,0.65 15.17,-0.23C15.15,-0.18 15.14,-0.12 15.13,-0.07C16.6,0.04 19.22,0.6 20.09,3.22C22.83,11.43 14.78,22.83 0,26.1Z" style="fill:none;fill-rule:nonzero;stroke:rgb(66,39,36);stroke-width:1px;"/>
    </g>
    <g transform="matrix(4.166667,0,0,4.166667,843.355291,368.575699)">
        <path d="M0,-8.2C0.14,-9.02 2.56,-9.27 4.91,-8.88C9.86,-8.07 6.39,1.07 4.19,0.29C3.1,-0.11 -0.19,-7.03 0,-8.2" style="fill:rgb(66,39,36);fill-rule:nonzero;"/>
    </g>
</svg>
